<?xml version="1.0" encoding="utf-8"?>
<!-- Generator: Adobe Illustrator 15.0.2, SVG Export Plug-In . SVG Version: 6.00 Build 0)  -->
<!DOCTYPE svg PUBLIC "-//W3C//DTD SVG 1.1//EN" "http://www.w3.org/Graphics/SVG/1.1/DTD/svg11.dtd">
<svg version="1.1" id="Layer_1" xmlns="http://www.w3.org/2000/svg" xmlns:xlink="http://www.w3.org/1999/xlink" x="0px" y="0px"
	 width="300px" height="300px" viewBox="0 0 300 300" enable-background="new 0 0 300 300" xml:space="preserve">
<g id="ArNl6p.tif">
	<g>
		<path fill-rule="evenodd" clip-rule="evenodd" fill="#FFFFFF" stroke="#565656" stroke-width="2" stroke-miterlimit="10" d="
			M194.691,148.651c23.596-2.689,44.301-9.103,53.97-24.375c6.924-10.935,7.739-31.788-1.158-41.785
			c-4.548-5.109-15.417-9.399-20.895-14.509c-13.16-12.276-16.182-32.542-41.785-29.018c-13.149,1.81-29.735,16.847-33.661,28.437
			c-2.493,7.366-1.683,17.929-2.32,26.696c-0.322,4.426-0.759,9.067-1.161,13.348c-0.337,3.583,0.472,9.153-3.482,11.027
			c-6.072-19.304-2.171-42.451-9.866-58.034c-4.691-9.502-18.872-20.077-34.24-17.991C80.909,45.051,70.418,65.89,60.629,79.009
			c-12.645,8.111-33.474,23.584-24.375,45.848c1.422,3.48,6.045,7.938,8.705,9.866c7.65,5.542,19.988,9.364,31.919,11.026
			c12.723,1.773,27.065,0.101,37.723,5.803c-6.456,5.545-17.215,4.244-26.696,4.643c-10.126,0.427-21.246-0.326-29.018,2.902
			c-16.305,6.772-24.058,20.96-23.794,44.687c3.498,10.268,14.301,14.729,20.312,23.794c1.722,2.596,1.957,6.008,3.482,8.705
			c4.148,7.333,11.194,16.89,17.991,20.312c17.486,8.805,37.135,1.561,44.686-8.705c6.134-8.34,7.843-23.15,9.866-35.401
			c1.34-8.115,0.404-21.259,11.027-22.633c-4.078,41.355-2.377,85.475,33.079,92.275c2.853-9.773-6.516-13.905-11.026-20.312
			c-10.454-14.853-15.766-47.901-9.286-69.062c5.67,12.358,4.462,23.652,9.286,35.402c2.616,6.371,9.534,14.805,15.671,20.311
			c6.388,5.734,15.368,11.49,25.535,11.027c21.816-0.993,26.104-26.756,38.303-40.044c2.581-2.813,6.9-4.808,8.704-6.964
			c5.46-6.525,8.498-22.443,6.384-33.08c-1.525-7.682-8.687-15.207-14.509-18.571c-12.593-7.279-34.021-7.271-52.812-6.384
			c-5.532,0.262-12.208,2.229-16.829-1.741C180.852,149.177,188.395,149.368,194.691,148.651z"/>
	</g>
</g>
<g id="YlRO5s.tif">
	<g>
		<path fill-rule="evenodd" clip-rule="evenodd" fill="none" stroke="#565656" stroke-width="2" stroke-miterlimit="10" d="
			M-122.256,290.355c-4.134-36.274-27.641-53.177-40.686-80.542c-8.64,29.397-37.116,45.461-68.917,26.57
			c-3.398-2.019-6.763-6.866-10.794-9.964c-4.422-3.398-9.681-5.289-12.455-8.303c-15.288-16.61-12.634-51.442,4.152-62.274
			c5.984-1.137,9.857-5.724,17.437-7.473c19.085-4.404,47.265,2.123,56.462-12.455c-8.512-6.301-17.512-0.867-25.74,1.661
			c-17.499,5.375-38.596,12.59-58.123,5.812c-1.414-3.014-5.305-3.552-7.473-5.812c-14.141-15.041-9.596-37.125,0.831-52.311
			c3.808-5.547,11.245-8.353,14.946-14.116c2.127-3.312,1.706-7.305,3.321-9.964c6.988-11.499,26.739-25.583,42.347-24.079
			c16.978,1.636,29.526,22.949,31.552,38.195c2.356,17.726-0.292,36.612,1.661,51.48c0.745,5.676,1.486,9.085,8.303,9.964
			c6.854-23.515-12.011-42.486-9.134-68.086c1.811-16.116,10.104-31.917,28.231-34.043c13.255-1.555,29.313,5.294,36.534,9.964
			c4.147,2.682,7.038,8.691,12.455,13.285c5.016,4.254,11.525,7.441,16.607,12.455c15.859,15.649,22.171,43.938-2.491,57.292
			c-18.044,9.77-42.432,2.685-64.765,4.982c-4.296,0.442-9.817,1.533-12.455,5.812c19.155,5.683,50.149-5.131,72.238,0
			c12.269,2.85,25.973,18.937,27.401,31.553c2.268,20.034-10.745,27.84-19.098,36.534c-4.244,4.418-6.918,10.081-10.794,14.115
			c-4.826,5.023-9.996,9.83-14.115,11.625c-14.178,6.177-27.702-0.118-38.195-4.982c12.11,19.165,29.746,32.805,30.722,63.104
			C-115.614,290.355-118.935,290.355-122.256,290.355z M-161.282,180.752c1.082-11.141,1.873-26.853,1.661-36.534
			C-169.988,149.064-162.644,171.859-161.282,180.752z"/>
		<path fill-rule="evenodd" clip-rule="evenodd" fill="none" stroke="#565656" stroke-miterlimit="10" d="M-159.621,144.218
			c0.212,9.682-0.579,25.394-1.661,36.534C-162.644,171.859-169.988,149.064-159.621,144.218z"/>
	</g>
</g>
</svg>
