<?xml version="1.0" encoding="utf-8"?>
<!-- Generator: Adobe Illustrator 15.0.2, SVG Export Plug-In . SVG Version: 6.00 Build 0)  -->
<!DOCTYPE svg PUBLIC "-//W3C//DTD SVG 1.1//EN" "http://www.w3.org/Graphics/SVG/1.1/DTD/svg11.dtd">
<svg version="1.1" id="Layer_1" xmlns="http://www.w3.org/2000/svg" xmlns:xlink="http://www.w3.org/1999/xlink" x="0px" y="0px"
	 width="468px" height="461.67px" viewBox="0 0 468 461.67" enable-background="new 0 0 468 461.67" xml:space="preserve">
<g id="nJ1WrC.tif">
	<g>
		<path fill-rule="evenodd" clip-rule="evenodd" fill="#FFFFFF" stroke="#565656" stroke-width="3" stroke-miterlimit="10" d="
			M229,8.67c1.701-0.368,1.887,0.78,2,2c-6.067,21.933-11.848,44.152-17,67c-7.776-1.321-17.678-8.917-27-12
			C199.82,45.49,216.675,29.345,229,8.67z"/>
		<path fill-rule="evenodd" clip-rule="evenodd" fill="#FFFFFF" stroke="#565656" stroke-width="3" stroke-miterlimit="10" d="
			M121,430.67c15.943-69.822,38.071-138.263,58-208c19.911-69.675,36.144-140.893,53-214c-1.683,69.08,5.261,148.577,2,213
			c-0.99,19.56-13.471,33.01-22,48C181.035,324.095,150.012,380.642,121,430.67z"/>
		<path fill-rule="evenodd" clip-rule="evenodd" fill="#FFFFFF" stroke="#565656" stroke-width="3" stroke-miterlimit="10" d="
			M278,65.67c22.181-10.82,44.854-21.146,69-30c-15.556,18.778-34.084,34.583-50,53C289.364,82.305,284.405,73.265,278,65.67z"/>
		<path fill-rule="evenodd" clip-rule="evenodd" fill="#FFFFFF" stroke="#565656" stroke-width="3" stroke-miterlimit="10" d="
			M284,151.67c19.18-40.154,44.629-74.038,64-114c4.159,30.841,5.564,64.436,9,96C331.295,138.298,308.514,145.85,284,151.67z"/>
		<path fill-rule="evenodd" clip-rule="evenodd" fill="#FFFFFF" stroke="#565656" stroke-width="3" stroke-miterlimit="10" d="
			M172,242.67c-17.6-67.734-36.836-133.831-53-203c0.934,0.733,1.515,1.818,2,3c20.921,32.571,41.664,72.144,63,109
			c3.148,5.438,8.562,11.358,9,15c1.288,10.724-7.597,26.319-11,38C178.113,218.011,175.271,229.796,172,242.67z"/>
		<path fill-rule="evenodd" clip-rule="evenodd" fill="#FFFFFF" stroke="#565656" stroke-width="3" stroke-miterlimit="10" d="
			M118,44.67c5.255,22.745,12.466,43.534,17,67c-6.667,0-13.333,0-20,0C116.002,89.339,115.687,65.69,118,44.67z"/>
		<path fill-rule="evenodd" clip-rule="evenodd" fill="#FFFFFF" stroke="#565656" stroke-width="3" stroke-miterlimit="10" d="
			M356,106.67c24.619,3.047,48.501,6.833,72,11c-21.928,6.072-45.443,10.557-69,15C357.19,124.813,356.898,115.438,356,106.67z"/>
		<path fill-rule="evenodd" clip-rule="evenodd" fill="#FFFFFF" stroke="#565656" stroke-width="3" stroke-miterlimit="10" d="
			M136,112.67c1.608,8.726,4.426,16.241,6,25c-34.125-5.542-66.715-12.619-101-18C70.295,114.965,102.567,113.237,136,112.67z"/>
		<path fill-rule="evenodd" clip-rule="evenodd" fill="#FFFFFF" stroke="#565656" stroke-width="3" stroke-miterlimit="10" d="
			M324,182.67c-16.225-5.108-32.517-10.15-48-16c-1.428-3.238-2.516-6.817-3-11c50.812-13.522,103.069-25.597,157-36
			C395.827,141.831,358.269,160.606,324,182.67z"/>
		<path fill-rule="evenodd" clip-rule="evenodd" fill="#FFFFFF" stroke="#565656" stroke-width="3" stroke-miterlimit="10" d="
			M156,186.67c-9.67,0.735-19.345-8.443-29-14c-28.921-16.646-60.473-34.375-90-51c34.559,2.776,71.21,12.123,106,18
			C148.151,154.519,150.833,171.837,156,186.67z"/>
		<path fill-rule="evenodd" clip-rule="evenodd" fill="#FFFFFF" stroke="#565656" stroke-width="3" stroke-miterlimit="10" d="
			M395,204.67c-23.784-6.215-44.858-15.141-69-21c34.136-22.531,71.173-42.16,107-63C420.08,148.417,406.71,175.713,395,204.67z"/>
		<path fill-rule="evenodd" clip-rule="evenodd" fill="#FFFFFF" stroke="#565656" stroke-width="3" stroke-miterlimit="10" d="
			M464,228.67c-20.498-5.837-44.521-16.812-68-23c2.507-7.827,6.306-14.361,9-22C425.899,197.438,444.083,213.92,464,228.67z"/>
		<path fill-rule="evenodd" clip-rule="evenodd" fill="#FFFFFF" stroke="#565656" stroke-width="3" stroke-miterlimit="10" d="
			M156,233.67c-50,0-100,0-150,0c36.211-13.455,71.833-27.5,110-39C128.921,208.083,144.614,218.722,156,233.67z"/>
		<path fill-rule="evenodd" clip-rule="evenodd" fill="#FFFFFF" stroke="#565656" stroke-width="3" stroke-miterlimit="10" d="
			M378,289.67c-18.519-18.149-39.552-39.113-54-58c45.978,0.022,92.39-0.39,137,1c2.579,1.119-4.939,5.603-7,7
			C431.266,255.085,401.525,273.058,378,289.67z"/>
		<path fill-rule="evenodd" clip-rule="evenodd" fill="#FFFFFF" stroke="#565656" stroke-width="3" stroke-miterlimit="10" d="
			M170,246.67c-1.804,9.529-4.645,18.021-7,27c-50.411-12.588-97.367-28.633-151-38c38.755-0.669,99.533,1.244,145-2
			C161.949,237.388,165.768,242.236,170,246.67z"/>
		<path fill-rule="evenodd" clip-rule="evenodd" fill="#FFFFFF" stroke="#565656" stroke-width="3" stroke-miterlimit="10" d="
			M6,236.67c19.936,1.4,43.107,8.225,63,13c-1.868,8.465-6.979,13.688-8,23C41.125,262.211,25.465,247.538,6,236.67z"/>
		<path fill-rule="evenodd" clip-rule="evenodd" fill="#FFFFFF" stroke="#565656" stroke-width="3" stroke-miterlimit="10" d="
			M121,432.67c37.889-64.112,73.505-130.493,111-195c2.149,46.815,1.853,90.043,2,139C196.311,395.313,161.614,416.951,121,432.67z"
			/>
		<path fill-rule="evenodd" clip-rule="evenodd" fill="#FFFFFF" stroke="#565656" stroke-width="3" stroke-miterlimit="10" d="
			M36,346.67c7.602-31.732,23.209-64.124,34-96c16.396,2.604,29.056,8.944,46,11C95.397,292.073,60.484,316.816,36,346.67z"/>
		<path fill-rule="evenodd" clip-rule="evenodd" fill="#FFFFFF" stroke="#565656" stroke-width="3" stroke-miterlimit="10" d="
			M434,347.67c-33.427,4.24-69.177,6.156-103,10c-8.979-26.02-14.578-55.422-24-81C351.115,298.554,389.247,326.424,434,347.67z"/>
		<path fill-rule="evenodd" clip-rule="evenodd" fill="#FFFFFF" stroke="#565656" stroke-width="3" stroke-miterlimit="10" d="
			M150,314.67c1.242,10.111-8.708,27.695-11,42c-33.352-2.648-65.547-6.453-101-7C72.475,335.145,113.312,326.983,150,314.67z"/>
		<path fill-rule="evenodd" clip-rule="evenodd" fill="#FFFFFF" stroke="#565656" stroke-width="3" stroke-miterlimit="10" d="
			M103,355.67c12.595-0.222,26.798,2.019,35,3c-7.849,22.817-14.109,47.224-19,73C111.406,408.598,108.349,380.987,103,355.67z"/>
		<path fill-rule="evenodd" clip-rule="evenodd" fill="#FFFFFF" stroke="#565656" stroke-width="3" stroke-miterlimit="10" d="
			M360,355.67c1.31,22.978-6.135,45.864-7,70c-9.781-19.22-14.711-43.289-21-66C340.378,357.381,351.781,358.118,360,355.67z"/>
		<path fill-rule="evenodd" clip-rule="evenodd" fill="#FFFFFF" stroke="#565656" stroke-width="3" stroke-miterlimit="10" d="
			M192,399.67c6.083-1.25,9.24-5.427,15-7c7.65,23.683,17.778,44.889,26,68C218.2,441.47,204.958,420.713,192,399.67z"/>
		<path fill-rule="evenodd" clip-rule="evenodd" stroke="#565656" stroke-width="3" stroke-miterlimit="10" d="M235,10.67
			c-2.753,58.831,0,118.045,0,179c0,13.485-2.882,30.459,0,43c1.595,6.94,10.421,16.54,15,24c14.006,22.817,29.838,52.406,42,74
			c19.29,34.249,40.926,65.217,57,97c-39.637-62.029-75.546-127.787-114-191c-2.102,45.024,1.082,92.731,1,139
			c39.133,17.2,74.759,37.908,113,56c-23.245-8.088-42.193-20.474-64-30c-16.849,21.152-31.791,44.208-51,63
			c-15.524-19.809-28.567-42.1-43-63c-25.576,10.091-45.542,25.791-74,33c-5.133-26.533-11.458-51.875-15-80
			c-22.352-2.648-48.021-1.979-70-5c8.452-25.215,18.231-49.102,27-74c-18.102-15.232-38.236-28.431-59-41
			c18.443-17.557,38.971-33.029,61-47c-9.533-22.48-22.218-47.099-29-69c26.123-3.21,53.331-5.336,81-7
			c2.786-23.644,1.276-56.594,4-77c22.432,9.901,45.115,19.552,67,30c17.637-19.363,32.636-41.364,49-62
			c15.514,19.153,28.263,41.07,43,61c25.7-8.967,47.046-22.287,74-30c2.07,23.596,2.866,48.467,6,71
			c26.072,4.594,53.526,7.807,79,13c-8.369,22.631-19.521,42.479-29,64c20.669,16.331,41.852,32.148,62,49
			c-18.711,15.289-41.523,26.476-60,42c7.95,28.383,22.96,49.707,32,77c-26.195,1.471-51.113,4.221-77,6
			c-4.16,23.281-4.832,51.162-9,73c0.767-4.018-2.908,1.812-2,4c-5.898,0.71-0.101-5.712-3-8
			C308.836,288.834,268.516,153.154,235,10.67z M263,121.67c11.979-9.355,22.494-20.173,32-32c-21.661-24.672-40.567-57.432-60-81
			C244.847,45.823,256.852,80.818,263,121.67z M235,461.67c17.38-19.287,34.347-38.987,48-62c-15.383-6.952-32.271-17.726-48-21
			C234.999,401.878,235.038,438.424,235,461.67z M233,460.67c-8.222-23.111-18.35-44.317-26-68c-5.76,1.573-8.917,5.75-15,7
			C204.958,420.713,218.2,441.47,233,460.67z M234,376.67c-0.147-48.957,0.149-92.185-2-139c-37.495,64.507-73.111,130.888-111,195
			C161.614,416.951,196.311,395.313,234,376.67z M212,269.67c8.529-14.99,21.01-28.44,22-48c3.261-64.423-3.683-143.92-2-213
			c-16.856,73.107-33.089,144.325-53,214c-19.929,69.737-42.057,138.178-58,208C150.012,380.642,181.035,324.095,212,269.67z
			 M182,204.67c3.403-11.681,12.288-27.276,11-38c-0.438-3.642-5.852-9.562-9-15c-21.336-36.856-42.079-76.429-63-109
			c-0.485-1.182-1.066-2.267-2-3c16.164,69.169,35.4,135.266,53,203C175.271,229.796,178.113,218.011,182,204.67z M194,163.67
			c4.859-13.807,8.09-29.243,11-45c-27.087-25.579-56.868-53.798-83-77C147.018,81.318,168.907,124.097,194,163.67z M206,115.67
			c1.44-12.893,5.512-23.155,7-36c-28.722-13.945-61.579-29.087-90-40C150.4,65.27,176.663,92.007,206,115.67z M187,65.67
			c9.322,3.083,19.224,10.679,27,12c5.152-22.848,10.933-45.067,17-67c-0.113-1.22-0.299-2.368-2-2
			C216.675,29.345,199.82,45.49,187,65.67z M233,396.67c0-6.011,3.535-16.921-1-18c-7.902,4.431-15.599,9.067-24,13
			c8.092,22.241,16.156,44.511,26,65C235.086,437.416,233,415.605,233,396.67z M143,139.67c-34.79-5.877-71.441-15.224-106-18
			c29.527,16.625,61.079,34.354,90,51c9.655,5.557,19.33,14.735,29,14C150.833,171.837,148.151,154.519,143,139.67z M154,228.67
			c4.961,4.863,9.786,10.742,16,14c-4.944-16.056-9.214-32.786-12-51c-40.854-20.481-80.661-47.338-119-67
			C77.126,158.559,118.218,193.598,154,228.67z M74,207.67c11.662-6.004,25.797-9.536,39-14c-22.046-22.955-53.854-50.146-79-70
			C47.675,151.328,57.77,182.567,74,207.67z M61,188.67c-18.745,13.255-40.891,28.441-55,43c21.319-8.014,43.177-15.49,65-23
			C68.692,200.978,65.136,194.534,61,188.67z M115,111.67c6.667,0,13.333,0,20,0c-4.534-23.466-11.745-44.255-17-67
			C115.687,65.69,116.002,89.339,115,111.67z M41,119.67c34.285,5.381,66.875,12.458,101,18c-1.574-8.759-4.392-16.274-6-25
			C102.567,113.237,70.295,114.965,41,119.67z M157,233.67c-45.467,3.244-106.245,1.331-145,2c53.633,9.367,100.589,25.412,151,38
			c2.355-8.979,5.196-17.471,7-27C165.768,242.236,161.949,237.388,157,233.67z M161,276.67c-39.655,23.012-81.018,44.315-119,69
			c35.512-11.488,71.967-22.033,109-32C155.248,302.914,160.045,287.388,161,276.67z M161,274.67c-15.445-2.221-26.346-8.987-42-11
			c-25.752,27.914-53.826,53.508-80,81C79.316,320.987,120.715,298.385,161,274.67z M116,261.67c-16.944-2.056-29.604-8.396-46-11
			c-10.791,31.876-26.398,64.268-34,96C60.484,316.816,95.397,292.073,116,261.67z M61,272.67c1.021-9.312,6.132-14.535,8-23
			c-19.893-4.775-43.064-11.6-63-13C25.465,247.538,41.125,262.211,61,272.67z M116,194.67c-38.167,11.5-73.789,25.545-110,39
			c50,0,100,0,150,0C144.614,218.722,128.921,208.083,116,194.67z M38,349.67c35.453,0.547,67.648,4.352,101,7
			c2.292-14.305,12.242-31.889,11-42C113.312,326.983,72.475,335.145,38,349.67z M119,431.67c4.891-25.776,11.151-50.183,19-73
			c-8.202-0.981-22.405-3.222-35-3C108.349,380.987,111.406,408.598,119,431.67z M405,272.67c-8.039,6.961-18.856,11.144-26,19
			c17.22,18.781,41.097,36.235,56,54c-49.245-43.368-97.771-94.459-142-142c-2.261-2.43-5.416-6.483-9-6
			c7.788,25.212,15.116,50.884,22,77c33.5,17.368,66.225,36.678,97,56c10.233,6.425,21.816,13.097,34,15
			C428.393,323.276,414.987,297.017,405,272.67z M307,276.67c9.422,25.578,15.021,54.98,24,81c33.823-3.844,69.573-5.76,103-10
			C389.247,326.424,351.115,298.554,307,276.67z M332,359.67c6.289,22.711,11.219,46.78,21,66c0.865-24.136,8.31-47.022,7-70
			C351.781,358.118,340.378,357.381,332,359.67z M454,239.67c2.061-1.397,9.579-5.881,7-7c-44.61-1.39-91.022-0.978-137-1
			c14.448,18.887,35.481,39.851,54,58C401.525,273.058,431.266,255.085,454,239.67z M301,211.67c5.037,5.328,16.114,17.873,21,19
			c6.262,1.445,14.483-1.331,22-1c36.76,1.616,85.172-0.066,120,1c-60.021-22.313-126.826-43.173-188-61
			C279.642,190.013,288.862,198.832,301,211.67z M405,183.67c-2.694,7.639-6.493,14.173-9,22c23.479,6.188,47.502,17.163,68,23
			C444.083,213.92,425.899,197.438,405,183.67z M433,120.67c-35.827,20.84-72.864,40.469-107,63c24.142,5.859,45.216,14.785,69,21
			C406.71,175.713,420.08,148.417,433,120.67z M430,119.67c-53.931,10.403-106.188,22.478-157,36c0.484,4.183,1.572,7.762,3,11
			c15.483,5.85,31.775,10.892,48,16C358.269,160.606,395.827,141.831,430,119.67z M357,133.67c-3.436-31.564-4.841-65.159-9-96
			c-19.371,39.962-44.82,73.846-64,114C308.514,145.85,331.295,138.298,357,133.67z M284,104.67c-6.767,6.767-15.514,12.366-19,21
			c2.793,9.541,3.367,21.299,9,28c11.945-1.757,16.056-15.895,21-25c16.369-30.142,35.815-60.096,50-88
			C324.106,60.86,304.122,84.548,284,104.67z M297,88.67c15.916-18.417,34.444-34.222,50-53c-24.146,8.854-46.819,19.18-69,30
			C284.405,73.265,289.364,82.305,297,88.67z M359,132.67c23.557-4.443,47.072-8.928,69-15c-23.499-4.167-47.381-7.953-72-11
			C356.898,115.438,357.19,124.813,359,132.67z"/>
		<path fill-rule="evenodd" clip-rule="evenodd" fill="#FFFFFF" stroke="#565656" stroke-width="3" stroke-miterlimit="10" d="
			M235,8.67c19.433,23.568,38.339,56.328,60,81c-9.506,11.827-20.021,22.645-32,32C256.852,80.818,244.847,45.823,235,8.67z"/>
		<path fill-rule="evenodd" clip-rule="evenodd" fill="#FFFFFF" stroke="#565656" stroke-width="3" stroke-miterlimit="10" d="
			M235,378.67c15.729,3.274,32.617,14.048,48,21c-13.653,23.013-30.62,42.713-48,62C235.038,438.424,234.999,401.878,235,378.67z"/>
		<path fill-rule="evenodd" clip-rule="evenodd" fill="#FFFFFF" stroke="#565656" stroke-width="3" stroke-miterlimit="10" d="
			M345,40.67c-14.185,27.904-33.631,57.858-50,88c-4.944,9.105-9.055,23.243-21,25c-5.633-6.701-6.207-18.459-9-28
			c3.486-8.634,12.233-14.233,19-21C304.122,84.548,324.106,60.86,345,40.67z"/>
		<path fill-rule="evenodd" clip-rule="evenodd" fill="#FFFFFF" stroke="#565656" stroke-width="3" stroke-miterlimit="10" d="
			M123,39.67c28.421,10.913,61.278,26.055,90,40c-1.488,12.845-5.56,23.107-7,36C176.663,92.007,150.4,65.27,123,39.67z"/>
		<path fill-rule="evenodd" clip-rule="evenodd" fill="#FFFFFF" stroke="#565656" stroke-width="3" stroke-miterlimit="10" d="
			M122,41.67c26.132,23.202,55.913,51.421,83,77c-2.91,15.757-6.141,31.193-11,45C168.907,124.097,147.018,81.318,122,41.67z"/>
		<path fill-rule="evenodd" clip-rule="evenodd" fill="#FFFFFF" stroke="#565656" stroke-width="3" stroke-miterlimit="10" d="
			M39,124.67c38.339,19.662,78.146,46.519,119,67c2.786,18.214,7.056,34.944,12,51c-6.214-3.258-11.039-9.137-16-14
			C118.218,193.598,77.126,158.559,39,124.67z"/>
		<path fill-rule="evenodd" clip-rule="evenodd" fill="#FFFFFF" stroke="#565656" stroke-width="3" stroke-miterlimit="10" d="
			M34,123.67c25.146,19.854,56.954,47.045,79,70c-13.203,4.464-27.338,7.996-39,14C57.77,182.567,47.675,151.328,34,123.67z"/>
		<path fill-rule="evenodd" clip-rule="evenodd" fill="#FFFFFF" stroke="#565656" stroke-width="3" stroke-miterlimit="10" d="
			M276,169.67c61.174,17.827,127.979,38.687,188,61c-34.828-1.066-83.24,0.616-120-1c-7.517-0.331-15.738,2.445-22,1
			c-4.886-1.127-15.963-13.672-21-19C288.862,198.832,279.642,190.013,276,169.67z"/>
		<path fill-rule="evenodd" clip-rule="evenodd" fill="#FFFFFF" stroke="#565656" stroke-width="3" stroke-miterlimit="10" d="
			M71,208.67c-21.823,7.51-43.681,14.986-65,23c14.109-14.559,36.255-29.745,55-43C65.136,194.534,68.692,200.978,71,208.67z"/>
		<path fill-rule="evenodd" clip-rule="evenodd" fill="#FFFFFF" stroke="#565656" stroke-width="3" stroke-miterlimit="10" d="
			M437,345.67c-12.184-1.903-23.767-8.575-34-15c-30.775-19.322-63.5-38.632-97-56c-6.884-26.116-14.212-51.788-22-77
			c3.584-0.483,6.739,3.57,9,6c44.229,47.541,92.755,98.632,142,142c-14.903-17.765-38.78-35.219-56-54
			c7.144-7.856,17.961-12.039,26-19C414.987,297.017,428.393,323.276,437,345.67z"/>
		<path fill-rule="evenodd" clip-rule="evenodd" fill="#FFFFFF" stroke="#565656" stroke-width="3" stroke-miterlimit="10" d="
			M39,344.67c26.174-27.492,54.248-53.086,80-81c15.654,2.013,26.555,8.779,42,11C120.715,298.385,79.316,320.987,39,344.67z"/>
		<path fill-rule="evenodd" clip-rule="evenodd" fill="#FFFFFF" stroke="#565656" stroke-width="3" stroke-miterlimit="10" d="
			M151,313.67c-37.033,9.967-73.488,20.512-109,32c37.982-24.685,79.345-45.988,119-69C160.045,287.388,155.248,302.914,151,313.67z
			"/>
		<path fill-rule="evenodd" clip-rule="evenodd" fill="#FFFFFF" stroke="#565656" stroke-width="3" stroke-miterlimit="10" d="
			M234,456.67c-9.844-20.489-17.908-42.759-26-65c8.401-3.933,16.098-8.569,24-13c4.535,1.079,1,11.989,1,18
			C233,415.605,235.086,437.416,234,456.67z"/>
	</g>
</g>
</svg>
